<svg id="Lager_1" data-name="Lager 1" xmlns="http://www.w3.org/2000/svg" viewBox="0 0 1366 768"><title>SkinCityLogoNadinne</title><g id="Layer_2" data-name="Layer 2"><g id="Layer_1-2" data-name="Layer 1-2"><polygon points="494.57 483.37 502.87 474.44 505.27 476.67 506.97 474.86 500.12 468.48 498.44 470.29 500.82 472.52 492.52 481.45 494.57 483.37"/><polygon points="506.66 493.46 515.81 481.98 513.6 480.24 509.97 484.82 506.85 482.34 510.5 477.76 508.3 476.01 499.18 487.5 501.36 489.24 505.31 484.29 508.42 486.75 504.48 491.72 506.66 493.46"/><polygon points="522.9 489.86 524.3 487.81 517.92 483.49 509.7 495.64 516.23 500.07 517.63 498.02 513.42 495.17 515.59 491.96 518.67 494.05 520.05 492 516.97 489.91 518.86 487.11 522.9 489.86"/><polygon points="537.04 497.84 538.2 495.64 531.39 492.06 524.56 505.04 531.54 508.72 532.69 506.52 528.2 504.16 530 500.74 533.28 502.47 534.45 500.29 531.15 498.56 532.73 495.57 537.04 497.84"/><polygon points="540.44 496.71 534.47 510.12 541.16 513.09 542.17 510.83 538.04 509 543.01 497.85 540.44 496.71"/><polygon points="555.09 505.32 555.95 503 548.74 500.33 543.66 514.11 551.06 516.84 551.92 514.5 547.16 512.75 548.48 509.12 551.97 510.41 552.83 508.08 549.34 506.79 550.51 503.62 555.09 505.32"/><polygon points="562.08 514.86 562.04 514.85 562.11 504.89 558.32 503.87 554.49 518.03 556.8 518.66 559.83 507.51 559.86 507.52 559.72 519.46 561.76 520.01 567.66 509.64 567.7 509.65 564.69 520.79 567.01 521.42 570.85 507.25 567.05 506.23 562.08 514.86"/><polygon points="570.82 522.14 578.57 523.52 579.01 521.07 574 520.2 574.68 516.39 578.34 517.04 578.76 514.59 575.12 513.95 575.7 510.63 580.49 511.48 580.93 509.04 573.36 507.69 570.82 522.14"/><polygon points="589.63 518.76 589.59 518.76 586.55 509.72 583.5 509.42 582.07 524.02 584.63 524.28 585.54 514.85 585.59 514.85 588.92 524.69 591.61 524.96 593.03 510.35 590.48 510.1 589.63 518.76"/><polygon points="600.6 525.23 600.82 513.03 604.1 513.09 604.14 510.6 594.79 510.44 594.74 512.91 598.02 512.98 597.79 525.18 600.6 525.23"/><path d="M610,512.45c1,0,1.61.5,2.16,1.85l2.47-.87a4.37,4.37,0,0,0-4.7-3.29c-2.91.16-4.32,1.82-4.18,4.34.23,4.1,6.48,3.85,6.63,6.54a1.62,1.62,0,0,1-1.39,1.83l-.22,0c-.84,0-1.89-.53-2.31-2.27l-2.72.74c.91,2.84,2.74,4,5,3.85,2.94-.17,4.57-1.92,4.43-4.44-.26-4.58-6.52-4.4-6.63-6.62a1.43,1.43,0,0,1,1.14-1.66Z"/><path d="M677.91,506.29c2.39-1.28,3.46-3.35,1.74-6.53l-2.48-4.62c-1.72-3.18-4-3.42-6.42-2.13s-3.46,3.35-1.74,6.53l2.49,4.62C673.21,507.34,675.51,507.59,677.91,506.29Zm-3.77-3.14-2.84-5.26c-.78-1.44-.36-2.16.63-2.69s1.82-.47,2.57,1l2.83,5.26c.77,1.43.36,2.17-.63,2.69s-1.79.48-2.56-1Z"/><polygon points="683.03 485.91 676.86 489.82 684.71 502.23 687.08 500.73 683.68 495.36 686.67 493.46 685.34 491.37 682.36 493.26 680.55 490.41 684.36 488 683.03 485.91"/><polygon points="700.67 491.14 702.86 489.38 699.14 484.75 696.81 475.44 694.46 477.3 696.31 483.4 690.69 480.32 688.35 482.19 696.96 486.51 700.67 491.14"/><path d="M711.27,482.28c2-1.86,2.49-4.12,0-6.77l-3.6-3.84c-2.47-2.63-4.75-2.29-6.74-.42s-2.49,4.12,0,6.75l3.59,3.85C707,484.5,709.29,484.14,711.27,482.28Zm-8.62-9.2c.82-.76,1.64-.91,2.75.27l4.1,4.36c1.1,1.18.89,2,.07,2.76s-1.64.92-2.74-.26l-4.09-4.36c-1.12-1.18-.9-2.05-.09-2.77Z"/><path d="M720.35,473c1.94-2.15,2.21-4.48-.19-6.65l-7.7-6.9-1.74,2.08,7.6,6.89a1.81,1.81,0,0,1,.6,2.5,1.9,1.9,0,0,1-.34.41,1.82,1.82,0,0,1-2.53.38,2,2,0,0,1-.38-.38l-7.62-6.89-1.89,2.09,7.63,6.9C716.14,475.66,718.41,475.17,720.35,473Z"/><path d="M729.84,461.17l1.83-2.39L724.83,457a3.56,3.56,0,0,0-1.62-4c-2.19-1.68-4.46-1.39-6.52,1.28l-2.47,3.22,11.65,9,1.7-2.23-4.74-3.63.82-1.06Zm-8-3.18-.89,1.14-3.22-2.48.88-1.14a2,2,0,0,1,3.23,2.48Z"/><path d="M738.94,447.61c1.53-2.57,1.39-4.9-1.12-6.42a3.67,3.67,0,0,0-4.2,0,3.42,3.42,0,0,0-1.7-3.11c-2.17-1.29-4.13-.45-5.67,2.14l-2,3.39,12.61,7.49Zm-7.77-4.25-.5.85-3-1.8.58-1a1.69,1.69,0,0,1,2.16-1,2,2,0,0,1,.41.22,1.86,1.86,0,0,1,.37,2.59l-.08.09Zm1.48,2,.5-.85c.76-1.28,1.85-1.74,3.05-1a2,2,0,0,1,.91,2.68,2.3,2.3,0,0,1-.21.33l-.61,1Z"/><polygon points="746.5 433.38 744.28 432.28 742.01 436.82 738.54 435.1 740.21 431.78 737.99 430.66 736.34 433.99 733.32 432.48 735.49 428.12 733.28 427.02 729.85 433.88 742.97 440.44 746.5 433.38"/><path d="M750.58,423.76l1-2.49L736.66,419l-1.36,3.34,12.2,9,1-2.57L746,426.81l1.47-3.59Zm-6.71,1.67-4.93-3.49h0l6,1Z"/><path d="M749.2,414.69l-9.77-3.12-.86,2.67,9.8,3.12c3.09,1,5-.4,5.83-3.16s.15-5-2.92-6l-9.77-3.12-.86,2.67,9.79,3.11A1.85,1.85,0,0,1,752,413a1.77,1.77,0,0,1-.15.51A1.86,1.86,0,0,1,749.2,414.69Z"/><polygon points="741.92 403.39 744.33 403.95 745.09 400.77 756.95 403.55 757.6 400.82 745.72 398.04 746.47 394.85 744.06 394.28 741.92 403.39"/><polygon points="744.2 393.69 753.45 391.08 759.31 392.01 759.75 389.25 753.9 388.32 745.88 383 745.42 385.95 750.88 389.22 744.66 390.72 744.2 393.69"/><polygon points="517.21 275.64 501.12 280.25 506.29 298.29 522.67 293.6 522.12 291.67 507.92 295.73 506.07 289.25 517.68 285.92 517.13 283.98 505.5 287.32 503.86 281.56 517.74 277.58 517.21 275.64"/><path d="M521.07,279.9c2.09,7.33,16.43-2,18,3.49.81,2.8-2.76,4.68-5.54,5.48-5.41,1.55-7.8-.23-9.24-1.29L523,289.51c2,1.28,4.92,3.09,10.82,1.4,6.14-1.75,8.34-5.13,7.48-8.12-2.33-8.1-16.56,1.63-18.12-3.85-.66-2.29,1.62-3.95,5.24-5,4.92-1.41,7.32.39,8.3,1l1.22-1.74c-1.73-1.39-5.23-2.57-10-1.13S520,276.05,521.07,279.9Z"/><polygon points="548.51 268.75 553.13 284.87 555.31 284.24 550.69 268.13 559.4 265.63 558.85 263.7 539.25 269.32 539.8 271.25 548.51 268.75"/><rect x="562.54" y="278.05" width="2.66" height="3" transform="translate(-55.72 169.06) rotate(-16.26)"/><path d="M582.11,258.53c3.27-.94,5.61,0,6.18,2.07.9,3.15-1.82,4.44-5.4,7.7-3.85,3.52-4.54,6.28-4.79,7.56l.47,1.65,15.56-4.46-.52-1.84-13.33,3.85c1.19-3.15,3.13-4.81,6-7.23,2.56-2.11,5.13-4.16,4-8-.9-3.11-3.85-4.59-9-3.13s-6.42,5.06-6.5,7.07l2,.34C577.12,262.49,577.84,259.76,582.11,258.53Z"/><path d="M610,258.86c-2.27-7.94-8.16-8-10.9-7.19s-7.69,3.93-5.42,11.87c1.92,6.71,6.78,8.24,10.85,7.07S611.93,265.57,610,258.86Zm-6,9.92c-3.31,1-6.93-.91-8.37-5.93-1.13-3.93-.29-8.11,4-9.34s7.2,1.89,8.33,5.81c1.42,5-.66,8.51-3.94,9.46Z"/><path d="M618,266.26l9.23-2.65-.53-1.84-3.59,1-4.79-16.68-1.41.4a23.41,23.41,0,0,1-4.16,2.57l.44,1.46,3.85-1.28,4.07,14.11-3.62,1Z"/><path d="M645.17,258.47l-.53-1.83-3.59,1L636.26,241l-1.41.41A24.26,24.26,0,0,1,630.7,244l.47,1.47L635,244l4,14.23-3.63,1,.52,1.83Z"/><path d="M488.22,347.76c4.79,16.67,30.37,9.58,33.59,20.84a7,7,0,0,1-4.25,8.93,6.29,6.29,0,0,1-.74.22c-3.4,1-8.27-.41-11.67-7.23l-10.59,5.64C501,387,509.66,390,518.94,387.37c12-3.45,17.11-12.26,14.11-22.54-5.36-18.72-31.07-12.07-33.67-21.1-1.16-4.06.36-7.19,4.42-8.35s7.16.55,10.67,5.64l9.43-5.94c-4.41-7.88-12.37-12.14-22.55-9.22C489.54,329.26,485.27,337.48,488.22,347.76Z"/><polygon points="563.97 335.54 556.9 310.85 545.47 314.13 562.61 373.95 574.05 370.67 568.81 352.36 571.32 344.28 590.45 365.96 603.3 362.28 575.9 331.49 584.41 302.95 571.9 306.55 564.14 335.49 563.97 335.54"/><rect x="615.45" y="293.59" width="11.89" height="62.24" transform="translate(-65.43 183.86) rotate(-16)"/><polygon points="672.65 342.39 661.58 303.79 661.75 303.74 690.29 337.34 701.23 334.19 684.08 274.37 673.64 277.37 683.81 312.83 683.64 312.88 657.56 281.98 645.05 285.57 662.21 345.4 672.65 342.39"/><path d="M534.59,421.45c4.55-1.28,8-.31,9.88,6.31l.47,1.67,11.45-3.28V426c-4.24-14.76-13.54-17.82-24.65-14.64s-17.37,10.73-13.14,25.48l6.08,21.37c4.24,14.75,13.55,17.82,24.65,14.63s17.37-10.71,13.15-25.47l-.72-2.49-11.42,3.28,1.13,4c1.92,6.64-.47,9.29-5,10.59s-8,.32-9.87-6.31l-7-24.38C527.65,425.41,530,422.76,534.59,421.45Z"/><rect x="584.02" y="396.78" width="11.89" height="62.24" transform="translate(-95.13 179.31) rotate(-16.01)"/><polygon points="651.4 442.66 637.15 392.94 650.49 389.12 647.59 379.01 609.48 389.93 612.38 400.05 625.72 396.21 639.97 445.93 651.4 442.66"/><polygon points="698.63 429.11 710.06 425.84 703.13 401.64 709.24 361.33 697.05 364.82 694.27 391.71 677.33 370.48 665.16 373.97 691.7 404.91 698.63 429.11"/><path d="M528.06,217.11A166.4,166.4,0,0,0,436.51,380.5a1.58,1.58,0,0,0,1.6,1.46h.14a1.6,1.6,0,0,0,1.46-1.74A163.9,163.9,0,0,1,529.52,220a1.61,1.61,0,0,0-1.42-2.89Z"/><path d="M457,440.27a1.62,1.62,0,0,0-2.89,1.45,166.5,166.5,0,0,0,147.8,90.51q8.12,0,16.25-.79a1.62,1.62,0,0,0-.32-3.22C551.83,534.71,487.18,499.36,457,440.27Z"/><path d="M676.2,514.85A166.89,166.89,0,0,0,767.62,350a1.63,1.63,0,0,0-1.73-1.5h0a1.63,1.63,0,0,0-1.45,1.77,163.61,163.61,0,0,1-89.62,161.65,1.62,1.62,0,0,0,.7,3.07A1.61,1.61,0,0,0,676.2,514.85Z"/><path d="M749.54,294.18a1.54,1.54,0,0,0,.7-.17,1.6,1.6,0,0,0,.74-2.14h0a166.88,166.88,0,0,0-164.9-91.34,1.62,1.62,0,0,0,.32,3.22,163.61,163.61,0,0,1,161.65,89.63A1.62,1.62,0,0,0,749.54,294.18Z"/><path d="M428.63,386.22H429a3.21,3.21,0,0,0,2.89-3.5v0a171.45,171.45,0,0,1,95.22-170.5,3.22,3.22,0,1,0-2.82-5.8,177.94,177.94,0,0,0-98.79,176.91A3.23,3.23,0,0,0,428.63,386.22Z"/><path d="M620,536.13a171.53,171.53,0,0,1-170.78-93.5,3.22,3.22,0,1,0-5.77,2.88h0a178.13,178.13,0,0,0,158.78,98,172.34,172.34,0,0,0,18.45-1,3.23,3.23,0,0,0-.68-6.41Z"/><path d="M775.17,344.59a3.22,3.22,0,0,0-2.86,3.55A171.32,171.32,0,0,1,677.2,519.73a3.22,3.22,0,0,0,1.42,6.12,3.31,3.31,0,0,0,1.41-.33,177.78,177.78,0,0,0,98.68-178.06A3.25,3.25,0,0,0,775.17,344.59Z"/><path d="M584.3,195.79a171.47,171.47,0,0,1,171.1,94.1,3.23,3.23,0,0,0,5.79-2.87,178,178,0,0,0-177.57-97.66,3.24,3.24,0,0,0,.68,6.42Z"/><path d="M787.92,314.91a1.6,1.6,0,0,0-2-1.1c-.79.23-1.29,0-2.43-.89a5.23,5.23,0,0,0-8.86,2.57c-.53,1.28-.8,1.81-1.58,2s-1.29-.06-2.41-.9a5.23,5.23,0,0,0-8.87,2.57c-.53,1.28-.79,1.81-1.56,2s-1.29-.08-2.42-.9a5.23,5.23,0,0,0-8.86,2.57c-.53,1.28-.8,1.82-1.58,2s-1.28,0-2.41-.9a5.65,5.65,0,0,0-5.13-1.39,1.61,1.61,0,1,0,.88,3.09c.78-.21,1.28.08,2.41.9a6.42,6.42,0,0,0,3.85,1.58,4.8,4.8,0,0,0,1.36-.19,5.64,5.64,0,0,0,3.67-3.93c.53-1.28.81-1.81,1.58-2s1.28,0,2.41.9a5.24,5.24,0,0,0,8.87-2.57c.51-1.28.79-1.81,1.56-2s1.29,0,2.43.9a5.22,5.22,0,0,0,8.85-2.56c.53-1.29.81-1.81,1.58-2s1.28,0,2.42.88a5.65,5.65,0,0,0,5.13,1.39,1.6,1.6,0,0,0,1.11-2Z"/><path d="M759.24,309a9.39,9.39,0,0,1-1,1.78c-.62.16-1-.08-1.94-1a4.53,4.53,0,0,0-4.54-1.6,4.94,4.94,0,0,0-3.19,3.85c-.39,1.28-.58,1.63-1,1.77s-.82-.13-1.79-1a5,5,0,0,0-4.79-1.62,1.6,1.6,0,0,0,.89,3.08c.45-.12.82.13,1.79,1a5.68,5.68,0,0,0,3.67,1.78,3.84,3.84,0,0,0,1.12-.16,5,5,0,0,0,3.19-3.85c.39-1.28.57-1.64,1-1.77s.53,0,1.45.86a5,5,0,0,0,5.13,1.72c1.46-.43,2.19-2,2.91-3.48a9.74,9.74,0,0,1,1.28-2.18,7.68,7.68,0,0,1,2.06,1.09c1.48,1,3,1.92,4.59,1.48s2.56-2.31,3.33-3.85a9.34,9.34,0,0,1,1-1.8c.61-.14,1,.09,1.93,1a4.52,4.52,0,0,0,4.53,1.61,1.63,1.63,0,1,0-.88-3.14c-.34.09-.54,0-1.45-.87a5,5,0,0,0-5.14-1.71c-1.47.43-2.19,2-2.91,3.48a9.18,9.18,0,0,1-1.28,2.18,7.27,7.27,0,0,1-2-1.08c-1.49-.95-3-1.93-4.61-1.47S760,307.39,759.24,309Z"/><path d="M783.64,325.24c-.36.1-.74-.17-1.63-1s-2.57-2.31-4.66-1.7a4.8,4.8,0,0,0-3.06,3.85c-.34,1.16-.52,1.59-.86,1.68s-.73-.16-1.63-1-2.57-2.31-4.66-1.69-2.69,2.56-3.07,3.85-.5,1.59-.84,1.69-.73-.17-1.63-1-2.57-2.31-4.66-1.7-2.69,2.57-3.07,3.85-.5,1.59-.86,1.69-.71-.18-1.6-1-2.56-2.3-4.67-1.69a1.61,1.61,0,0,0,.89,3.09c.36-.1.73.16,1.63,1a5.47,5.47,0,0,0,3.6,1.84,3.39,3.39,0,0,0,1-.16c2.13-.6,2.7-2.56,3.07-3.85s.5-1.57.85-1.68.73.17,1.61,1,2.57,2.31,4.67,1.68,2.68-2.57,3.06-3.85.5-1.59.86-1.69.73.16,1.61,1,2.57,2.3,4.67,1.68,2.7-2.56,3.07-3.85.5-1.57.86-1.68.72.17,1.61,1,2.57,2.3,4.67,1.68a1.61,1.61,0,1,0-.88-3.09h0Z"/><path d="M551.19,204.56a4.05,4.05,0,1,0,2.78-5h0A4,4,0,0,0,551.19,204.56Z"/><path d="M549.06,195.1a3.22,3.22,0,1,0-4-2.22h0A3.23,3.23,0,0,0,549.06,195.1Z"/><path d="M545,207.91a4.05,4.05,0,1,0-5-2.78A4,4,0,0,0,545,207.91Z"/><path d="M548.15,212.34a3.22,3.22,0,1,0,4,2.21h0A3.22,3.22,0,0,0,548.15,212.34Z"/><path d="M566.11,214.08a4.05,4.05,0,1,0-2.77,5h0A4.06,4.06,0,0,0,566.11,214.08Z"/><path d="M564.68,204.6a3.2,3.2,0,1,0,2.2-4,3.2,3.2,0,0,0-2.2,4Z"/><path d="M562.9,194.35a4.05,4.05,0,1,0-5-2.81,4.06,4.06,0,0,0,5,2.81Z"/><path d="M449.62,431a1.26,1.26,0,0,0,1-.11,1.33,1.33,0,0,0,.65-.8l1.2-4.23,4.33-.71a1.37,1.37,0,0,0,.88-.54,1.4,1.4,0,0,0,.22-1l-.76-4.33,3.61-2.56a1.35,1.35,0,0,0,.32-1.88h0l-2.57-3.56,2.14-3.85a1.32,1.32,0,0,0,.13-1,1.25,1.25,0,0,0-.65-.79l-3.85-2.12.28-4.38a1.28,1.28,0,0,0-.34-1,1.3,1.3,0,0,0-.93-.45l-4.39-.23-1.64-4.06a1.37,1.37,0,0,0-.73-.73,1.32,1.32,0,0,0-1,0l-4.05,1.7-3.26-2.95a1.28,1.28,0,0,0-1-.35,1.36,1.36,0,0,0-.94.45l-2.91,3.3-4.21-1.29a1.35,1.35,0,0,0-1,.12,1.39,1.39,0,0,0-.65.81l-1.19,4.22-4.34.7a1.4,1.4,0,0,0-.87.55,1.44,1.44,0,0,0-.23,1l.76,4.32-3.59,2.56a1.28,1.28,0,0,0-.41,1.77l.07.11,2.57,3.58-2.16,3.85a1.34,1.34,0,0,0-.11,1,1.4,1.4,0,0,0,.64.81l3.85,2.11-.27,4.37a1.43,1.43,0,0,0,.33,1,1.31,1.31,0,0,0,.93.43l4.38.22,1.66,4.08a1.28,1.28,0,0,0,1.64.78l.12-.05,4-1.72,3.26,3a1.24,1.24,0,0,0,.9.35h.07a1.27,1.27,0,0,0,.93-.44l2.91-3.29ZM444,427.36l-2.56,2.92-2.88-2.57a1.29,1.29,0,0,0-.89-.36,1.61,1.61,0,0,0-.53.1l-3.61,1.44-1.45-3.58a1.27,1.27,0,0,0-1.18-.82l-3.84-.2.24-3.85a1.3,1.3,0,0,0-.69-1.29l-3.44-1.81L425,414a1.28,1.28,0,0,0-.08-1.44l-2.26-3.16,3.2-2.28a1.29,1.29,0,0,0,.55-1.28l-.67-3.85,3.85-.62a1.36,1.36,0,0,0,1.08-1l1.05-3.73,3.73,1.1a1.36,1.36,0,0,0,1.39-.41l2.56-2.9,2.88,2.57a1.29,1.29,0,0,0,1.41.24l3.59-1.5,1.45,3.64a1.3,1.3,0,0,0,1.17.84l3.85.19-.25,3.85a1.29,1.29,0,0,0,.7,1.28l3.4,1.86-1.89,3.39a1.28,1.28,0,0,0,.07,1.44l2.27,3.16-3.2,2.22a1.29,1.29,0,0,0-.55,1.29l.67,3.85-3.85.62a1.3,1.3,0,0,0-1.07.95L449,428.07l-3.72-1.1A1.3,1.3,0,0,0,444,427.36Z"/><path d="M451.77,409.07a11.83,11.83,0,1,0-11.36,15.09,12,12,0,0,0,3.26-.46,11.83,11.83,0,0,0,8.11-14.61Zm-8.84,12.12a9.17,9.17,0,1,1-5.13-17.61,9.33,9.33,0,0,1,2.57-.36,9.15,9.15,0,0,1,2.56,18Z"/><path d="M640.78,528.41a1.38,1.38,0,0,0,.94.39h.37l11.71-3.37a1.33,1.33,0,0,0,.54-2.25l-8.7-8.33a1.28,1.28,0,0,0-1.81-.1,1.37,1.37,0,0,0-.41.74l-3,11.61A1.28,1.28,0,0,0,640.78,528.41Z"/><path d="M670,530.54l-27-24.95a1.28,1.28,0,0,0-2.19.63l-9.72,35.5a1.23,1.23,0,0,0,0,.71c.5,1.75,2.63,2.57,6.41,2.57a58.14,58.14,0,0,0,14.86-2.49,62,62,0,0,0,12.92-5.13c4-2.27,5.66-4.31,5.13-6.22A1.26,1.26,0,0,0,670,530.54ZM651.7,540a55.9,55.9,0,0,1-14.11,2.39,8.35,8.35,0,0,1-3.71-.55l9-32.76,25,23.09C667.09,533.53,661.51,537.14,651.7,540Z"/></g></g></svg>